# xmcd
#
# Track frame offsets: 
#        150
#        19023
#        38706
#        60369
#        80448
#        102723
#        121965
#        139362
#        163590
#        179754
#
# Disc length: 2604 seconds
#
# Revision: 0
# Processed by: cddbd v1.5.2PL0 Copyright (c) Steve Scherf et al.
# Submitted via: ExactAudioCopy v1.0b3
#
DISCID=860a2a0a
DTITLE=Various Artist - Cam On
DYEAR=1990
DGENRE=
TTITLE0=Huong Lan - Cam on
TTITLE1=Anh Thoai - Nho nguoi yeu
TTITLE2=Giao Linh - Que huong moi goi
TTITLE3=Bang Chau - Xuan nay con khong ve
TTITLE4=Huong Lan - Ke tu dem do
TTITLE5=Giao Linh - Chieu Tay do
TTITLE6=Huong Lan - No va toi
TTITLE7=Anh Thoai - Qua con me
TTITLE8=Huong Lan - Bien tinh
TTITLE9=Bang Chau - Chuyen buon ngay Xuan
EXTD=
EXTT0=
EXTT1=
EXTT2=
EXTT3=
EXTT4=
EXTT5=
EXTT6=
EXTT7=
EXTT8=
EXTT9=
PLAYORDER=
